<svg width="24" height="24" viewBox="0 0 24 24" fill="none" xmlns="http://www.w3.org/2000/svg">
<rect y="4" width="24" height="16" rx="2" fill="#F4F5F7"/>
<path fill-rule="evenodd" clip-rule="evenodd" d="M9.041 16.0927C9.041 15.0531 8.26194 14.2391 7.23249 14.2391V14.2383C6.20305 14.2383 5.42399 15.0523 5.42399 16.0935C5.42399 17.1646 6.2015 17.9995 7.23249 17.9995C8.26271 17.9995 9.041 17.1646 9.041 16.0927ZM3.75192 14.2996H2.5V17.9367H3.76588C4.41161 17.9367 4.97284 17.6079 4.97284 16.881C4.97284 16.5119 4.79145 16.1436 4.40695 16.0251V16.0154C4.67284 15.8655 4.83098 15.5754 4.83098 15.2369C4.83098 14.6381 4.38292 14.2996 3.75192 14.2996ZM4.18612 15.3183C4.18612 15.5803 4.02798 15.7858 3.75201 15.7858V15.785H3.13574V14.8686H3.74194C4.03728 14.8686 4.18612 15.058 4.18612 15.3183ZM3.81558 17.3693C4.14116 17.3693 4.32333 17.1485 4.32333 16.8414C4.32333 16.5392 4.13573 16.3176 3.81558 16.3176H3.13574V17.3693H3.81558ZM7.23258 17.3945C7.87288 17.3945 8.38605 16.8416 8.38605 16.0929C8.38605 15.3757 7.87288 14.8437 7.23258 14.8437C6.5915 14.8437 6.0791 15.3757 6.0791 16.0929C6.0791 16.8424 6.59227 17.3945 7.23258 17.3945ZM10.3244 14.2996H9.68872V17.9367H11.8375V17.3686H10.3244V14.2996ZM12.3457 14.2996H14.4403V14.8678H12.9814V15.8196H14.1597V16.3878H12.9814V17.367H14.5186V17.9351H12.345L12.3457 14.2996ZM14.7563 14.8686H15.9052V17.9359H16.5408V14.8678H17.6881V14.2996H14.7563V14.8686ZM19.6913 14.2391C20.7208 14.2391 21.4998 15.0531 21.4998 16.0927C21.4998 17.1646 20.7216 17.9995 19.6913 17.9995C18.6603 17.9995 17.8821 17.1646 17.8821 16.0935C17.8821 15.0523 18.6611 14.2383 19.6913 14.2383V14.2391ZM20.8441 16.0929C20.8441 16.8416 20.3317 17.3945 19.6914 17.3945H19.6906C19.0487 17.3945 18.5371 16.8424 18.5371 16.0929C18.5371 15.3757 19.0495 14.8437 19.6906 14.8437C20.3309 14.8437 20.8441 15.3757 20.8441 16.0929Z" fill="#333333"/>
<rect x="4.5" y="6" width="1" height="7.17319" fill="#333333"/>
<rect x="2.5" y="6" width="1" height="7.17319" fill="#333333"/>
<rect x="16.5" y="6" width="2" height="7.17319" fill="#333333"/>
<rect x="14.5" y="6" width="1" height="7.17319" fill="#333333"/>
<rect x="19.5" y="6" width="2" height="7.17319" fill="#333333"/>
<rect x="9.5" y="6" width="1" height="7.17319" fill="#333333"/>
<rect x="6.5" y="6" width="2" height="7.17319" fill="#333333"/>
<rect x="11.5" y="6" width="2" height="7.17319" fill="#333333"/>
</svg>
